# xmcd
#
# Track frame offsets: 
#        150
#        34198
#        69162
#        101598
#        114230
#        129753
#        153328
#        169553
#        184414
#        203699
#        222131
#        240136
#        259333
#        279256
#        297207
#        319869
#
# Disc length: 4344 seconds
#
# Revision: 0
# Processed by: cddbd v1.5.1PL0 Copyright (c) Steve Scherf et al.
# Submitted via: ExactAudioCopy v0.95a5
#
DISCID=d410f610
DTITLE=Various Artist - The 4th Annual Blues and Boogie Piano Summit
DYEAR=2003
DGENRE=Blues
TTITLE0=Mark "Mr. B" Braun - St. Louis Blues
TTITLE1=Mark "Mr. B" Braun - One Room Country Shack
TTITLE2=Mark "Mr. B" Braun - Down the Road Apiece
TTITLE3=Ricky Nye - Miss Nancy Pants
TTITLE4=Ricky Nye - Frankie and Johnny
TTITLE5=Ricky Nye - High Heel Sneakers
TTITLE6=Ricky Nye - It Comes to Me Naturally
TTITLE7=Carl Sonny Leland - Rt. 666
TTITLE8=Carl Sonny Leland - Witches' Kitchen
TTITLE9=Carl Sonny Leland - How Long Blues
TTITLE10=Carl Sonny Leland - Juke Joint Jump
TTITLE11=Silvan Zingg - Boogie Woogie Ambassador
TTITLE12=Silvan Zingg - Top o' the Pines
TTITLE13=Sivan Zingg - Yeh Yeh into Red River Valley
TTITLE14=Silvan Zingg - Goodbye Boogie 
TTITLE15=Silvan Zingg - Outro
EXTD=
EXTT0=
EXTT1=
EXTT2=
EXTT3=
EXTT4=
EXTT5=
EXTT6=
EXTT7=
EXTT8=
EXTT9=
EXTT10=
EXTT11=
EXTT12=
EXTT13=
EXTT14=
EXTT15=
PLAYORDER=
